<?xml version="1.0" encoding="UTF-8"?>
<svg width="111px" height="111px" viewBox="0 0 111 111" version="1.1" xmlns="http://www.w3.org/2000/svg" xmlns:xlink="http://www.w3.org/1999/xlink">
    <!-- Generator: Sketch 49.3 (51167) - http://www.bohemiancoding.com/sketch -->
    <title>狩猎图鉴icon</title>
    <desc>Created with Sketch.</desc>
    <defs>
        <path d="M55.4997386,0.00396996269 C41.7470619,-0.122293236 25.8045253,2.72391289 14.1922046,14.1921712 C2.72394627,25.8050482 -0.122816078,41.7470286 0.00400334627,55.5002614 C-0.122816078,69.2529381 2.72394627,85.1954747 14.1922046,96.8077954 C25.8045253,108.276054 41.7470619,111.122816 55.4997386,110.995997 C69.2529714,111.122816 85.1949518,108.276054 96.8078288,96.8077954 C108.276087,85.1954747 111.122293,69.2529381 110.99603,55.5002614 C111.122293,41.7470286 108.276087,25.8050482 96.8078288,14.1921712 C85.1949518,2.72391289 69.2529714,-0.122293236 55.4997386,0.00396996269 Z" id="path-1"></path>
        <rect id="path-3" x="11" y="9" width="55" height="65" rx="2"></rect>
        <polygon id="path-4" points="3 3 54.8992124 3 65.3116061 11 3 11"></polygon>
        <path d="M1.75784313,9.39955646 L9.78067717,3.22894065 C10.6562274,2.55552724 11.9119105,2.7193915 12.5853239,3.59494171 C12.8542124,3.94454186 13,4.37321883 13,4.81426454 L13,65.7679771 C13,66.3889589 12.7115515,66.9747124 12.2193228,67.353301 L4.19648878,73.5239168 C3.32093857,74.1973302 2.06525546,74.033466 1.39184206,73.1579158 C1.12295351,72.8083156 0.977165955,72.3796386 0.977165955,71.9385929 L0.977165955,10.9848803 C0.977165955,10.3638986 1.2656145,9.77814508 1.75784313,9.39955646 Z" id="path-5"></path>
        <polygon id="path-6" points="0 19 13.7103162 27.4197795 13.7103162 36.3882256 0 27.9684461"></polygon>
        <polygon id="path-7" points="0 46 13.7103162 55.4197795 13.7103162 64.3882256 0 54.9684461"></polygon>
        <path d="M55.2895424,8 L65,8 C66.1045695,8 67,8.8954305 67,10 L67,18.5680508 C67,19.6726203 66.1045695,20.5680508 65,20.5680508 C64.5126956,20.5680508 64.042156,20.3901376 63.6767567,20.0677265 L53.9662991,11.4996757 C53.1380511,10.7688686 53.0590596,9.50500475 53.7898667,8.67675673 C54.1695252,8.24647712 54.7157122,8 55.2895424,8 Z" id="path-8"></path>
        <path d="M55.2895424,60 L65,60 C66.1045695,60 67,60.8954305 67,62 L67,70.5680508 C67,71.6726203 66.1045695,72.5680508 65,72.5680508 C64.5126956,72.5680508 64.042156,72.3901376 63.6767567,72.0677265 L53.9662991,63.4996757 C53.1380511,62.7688686 53.0590596,61.5050048 53.7898667,60.6767567 C54.1695252,60.2464771 54.7157122,60 55.2895424,60 Z" id="path-9"></path>
    </defs>
    <g id="Page-1" stroke="none" stroke-width="1" fill="none" fill-rule="evenodd">
        <g id="切图" transform="translate(-805.000000, -827.000000)">
            <g id="狩猎图鉴icon" transform="translate(805.000000, 827.000000)">
                <g>
                    <g id="Bitmap">
                        <mask id="mask-2" fill="white">
                            <use xlink:href="#path-1"></use>
                        </mask>
                        <use id="Fill-1" fill="#FFFFFF" xlink:href="#path-1"></use>
                    </g>
                    <g id="Group-9" transform="translate(22.000000, 17.000000)">
                        <g id="Rectangle-7">
                            <use fill="#824BA6" fill-rule="evenodd" xlink:href="#path-3"></use>
                            <rect stroke="#350909" stroke-width="2" x="12" y="10" width="53" height="63" rx="2"></rect>
                        </g>
                        <g id="Rectangle-8">
                            <use fill="#FFFFFF" fill-rule="evenodd" xlink:href="#path-4"></use>
                            <path stroke="#350909" stroke-width="2" d="M4,4 L4,10 L62.3687067,10 L54.5594114,4 L4,4 Z"></path>
                        </g>
                        <g id="Rectangle-7" transform="translate(6.988583, 38.376429) scale(-1, 1) translate(-6.988583, -38.376429) ">
                            <use fill="#4B1676" fill-rule="evenodd" xlink:href="#path-5"></use>
                            <path stroke="#350909" stroke-width="2" d="M2.36750454,10.1922184 C2.12139023,10.3815127 1.97716596,10.6743895 1.97716596,10.9848803 L1.97716596,71.9385929 C1.97716596,72.1591158 2.05005973,72.3734543 2.18450401,72.5482544 C2.52121071,72.9860295 3.14905226,73.0679616 3.58682737,72.7312549 L11.6096614,66.5606391 C11.8557757,66.3713448 12,66.078468 12,65.7679771 L12,4.81426454 C12,4.59374169 11.9271062,4.3794032 11.7926619,4.20460313 C11.4559552,3.76682802 10.8281137,3.68489589 10.3903386,4.02160259 L2.36750454,10.1922184 Z"></path>
                        </g>
                        <g id="Rectangle-9">
                            <use fill="#FFE45E" fill-rule="evenodd" xlink:href="#path-6"></use>
                            <path stroke="#350909" stroke-width="2" d="M1,20.7876375 L1,27.4090486 L12.7103162,34.600588 L12.7103162,27.979177 L1,20.7876375 Z"></path>
                        </g>
                        <g id="Rectangle-9">
                            <use fill="#FFE45E" fill-rule="evenodd" xlink:href="#path-7"></use>
                            <path stroke="#350909" stroke-width="2" d="M1,47.9003378 L1,54.4422239 L12.7103162,62.4878878 L12.7103162,55.9460017 L1,47.9003378 Z"></path>
                        </g>
                        <g id="怪兽" transform="translate(17.000000, 21.000000)" fill-rule="nonzero">
                            <path d="M30.2413899,45.9941281 C28.4386084,45.9941281 26.0292835,42.5716542 25.4676694,39.2143434 C25.1155019,37.1747938 24.9053186,35.1128669 24.8386615,33.0436911 C24.7750413,32.6104151 24.3897005,32.3008725 23.9569273,32.3353976 L23.8614529,32.3353976 C23.510444,32.3637293 23.153819,32.3835615 22.797194,32.3892279 C22.6595985,33.9248081 22.5669322,35.4008916 22.5163869,36.7834803 C22.4826901,37.7325936 22.5163869,38.5428812 22.5332353,39.1945111 C22.6062452,41.2513952 22.7410325,45.0790129 18.9136319,45.8071386 C18.7941862,45.829745 18.6729199,45.8411265 18.5513908,45.8411366 L18.4446841,45.8411366 C17.8602271,45.812934 17.3222909,45.5111762 16.9901034,45.0251827 C16.650717,44.521532 16.5926527,43.876934 16.8364857,43.3198044 C17.0803187,42.7626748 17.5915979,42.3717303 18.1891496,42.2855036 C18.5261181,42.2231738 19.2253278,42.0928478 19.1270453,39.3191708 C19.113005,38.9083606 19.113005,38.4692187 19.113005,37.9365821 L19.113005,36.712651 C19.0933485,35.1119078 19.073692,34.6812654 19.0006822,33.2958435 C18.9352319,32.4935797 18.3836695,31.8163062 17.6163032,31.5959393 C16.9937854,31.3890015 16.3850575,31.1420088 15.7938652,30.856481 C15.6994998,30.8097077 15.5957314,30.7854725 15.4905936,30.7856516 C15.3088521,30.7823198 15.1346442,30.8588294 15.0132215,30.9953065 C14.9551949,31.0630102 14.9322902,31.1543975 14.951444,31.2417926 C16.2235001,37.2481208 16.3217826,38.7808678 16.2852776,39.4126655 C16.2324181,40.3948602 15.734207,41.2977758 14.9345955,41.8605276 C14.0921743,42.4668268 12.9015522,42.7756427 11.3992343,42.7756427 C10.8125639,42.7756986 10.226758,42.7302338 9.64699807,42.6396504 C9.14768923,42.5591447 8.70196863,42.278079 8.41144686,41.8605276 C8.14136375,41.4751301 8.0398551,40.9947986 8.13063982,40.5317692 C8.32088798,39.6705649 9.08427152,39.0624438 9.95869395,39.0755178 C10.0649701,39.0754468 10.1710808,39.0839736 10.276006,39.1010164 C10.6477466,39.1576648 11.0232824,39.1851345 11.3992343,39.1831784 C11.7942841,39.1973005 12.1891555,39.150486 12.5701998,39.044353 C12.5224626,37.8940844 11.6940817,33.4148368 9.88006794,25.5471134 L9.84637111,25.4904499 C8.85708154,23.9444055 7.54867665,22.6320352 6.01054631,21.643 C4.21553837,20.4427983 2.74020063,18.816121 1.71419783,16.9059336 C-0.389047275,13.1151472 -0.571571826,7.96727064 1.24805809,4.42013717 C2.38813489,2.19042945 4.18530025,0.75401042 6.44579729,0.266704508 C7.25415613,0.0906887326 8.07869823,0.00141950345 8.90566736,0.000386139467 C11.5281844,-0.0219634349 14.0678153,0.926563831 16.0437835,2.6664026 C16.4041908,3.00800996 16.6024582,3.48891201 16.588504,3.9876339 C16.5745497,4.48635579 16.3497081,4.95520661 15.9707736,5.27575563 C15.623025,5.57213697 15.1820098,5.73384846 14.7267983,5.73189658 C14.2394015,5.73525029 13.7695673,5.54847876 13.4154292,5.2105926 C12.1427936,4.15754995 10.5459196,3.58543164 8.90005122,3.59285043 C8.34872281,3.59417271 7.79906127,3.65399847 7.26013779,3.7713404 C5.85610237,4.07732317 5.0136811,5.15959551 4.58685433,6.01238072 C3.30637401,8.50840673 3.48609057,12.4748499 4.99964076,15.2400275 C5.73328409,16.6057186 6.78339823,17.7721424 8.06043802,18.6398359 C8.32158858,11.5200704 14.7015257,5.79989269 22.5051546,5.79989277 C29.929694,5.79989277 36.0793692,10.9931001 36.8712452,17.6368925 C38.0253623,16.4186278 39.2552973,14.7810533 39.7972551,12.9394904 C40.6396763,10.0439869 40.3448289,7.62445656 38.9323693,5.9443846 C37.7116187,4.56183443 35.9916344,3.73192396 34.1586488,3.64101435 C32.7902751,3.63412119 31.4885224,4.23639387 30.6008229,5.28708832 C30.2399377,5.76330643 29.678611,6.04123488 29.0844647,6.03787935 C28.7336871,6.03679527 28.3899016,5.93881254 28.0904076,5.75456195 C27.6564804,5.49884779 27.3503441,5.06951431 27.2479863,4.57312852 C27.1535764,4.09294344 27.2647525,3.5948679 27.5540661,3.20187243 C29.1722787,1.20696388 31.5952323,0.0538638866 34.1502246,0.0627159937 C37.0965957,0.148604616 39.8756255,1.46384983 41.8246822,3.69484469 C43.3663132,5.52790806 44.8854795,8.79455738 43.3803535,13.9311012 C42.2571251,17.7473862 39.2216006,20.6655551 37.4075867,22.130306 L36.1748437,24.2211882 C35.9445819,25.8247645 35.753633,27.3376792 35.6132295,28.7542661 C34.8859391,35.4802205 35.3071498,37.5371046 35.4728259,38.0357431 L35.4952905,38.0357431 C35.5235663,37.9730504 35.5452144,37.9075255 35.5598761,37.8402542 C35.7291256,36.956423 36.504327,36.3237816 37.3963544,36.3415053 C37.4846087,36.3415257 37.5727725,36.3472035 37.6603131,36.3585043 C38.1616721,36.4247499 38.6152899,36.6924068 38.9183289,37.1007958 C39.1983,37.474372 39.3131032,37.9479402 39.2356409,38.409722 C39.1794795,38.7695351 38.803198,40.6025984 37.0818505,41.3732218 C36.634007,41.5713986 36.149987,41.6727354 35.6609667,41.6707049 C34.888959,41.6513587 34.1325213,41.4474503 33.4538229,41.0757385 C31.8026772,40.2257864 30.9518318,37.9252494 31.8139096,29.27557 C31.1410632,29.7955297 30.4251803,30.2561981 29.6741596,30.6524925 C29.0074263,30.9621813 28.5722184,31.6263177 28.5509312,32.3665626 L28.5509312,33.2420132 C28.58182,35.4717209 28.6014764,37.0809636 28.9917983,38.9678572 C29.2381411,40.301096 29.8646665,41.532856 30.7945798,42.5121575 C31.54626,42.5560273 32.1877382,43.0758449 32.3923722,43.8069179 C32.5098427,44.2458463 32.4427995,44.7142196 32.2070395,45.1016784 C31.9492025,45.5208402 31.5336733,45.816356 31.0557305,45.9204655 C30.7831103,45.9760461 30.5054656,46.0026344 30.2273495,45.9997944 L30.2413899,45.9941281 Z" id="Shape" fill="#FFFFFF"></path>
                            <path d="M22.4986241,15.0922242 C26.5906886,15.0922242 30.019547,18.301085 30.9386792,19.244349 C31.006085,19.3110785 31.0443951,19.404788 31.0443951,19.5029385 C31.0443951,19.6010891 31.006085,19.6947985 30.9386792,19.761528 C30.019547,20.704792 26.5906886,23.9165913 22.4986241,23.9165913 C18.4065595,23.9165913 14.980453,20.704792 14.0613208,19.761528 C13.993915,19.6947985 13.9556049,19.6010891 13.9556049,19.5029385 C13.9556049,19.404788 13.993915,19.3110785 14.0613208,19.244349 C14.980453,18.301085 18.4093114,15.0922242 22.4986241,15.0922242 Z M22.4986241,13 C17.6938193,13 13.7888834,16.6261302 12.7046377,17.7368897 C12.2545169,18.1974647 12,18.8343046 12,19.5 C12,20.1656954 12.2545169,20.8025353 12.7046377,21.2631103 C13.7888834,22.3738698 17.6938193,26 22.4986241,26 C27.3034288,26 31.2111166,22.3738698 32.2953623,21.2631103 C32.7454831,20.8025353 33,20.1656954 33,19.5 C33,18.8343046 32.7454831,18.1974647 32.2953623,17.7368897 C31.2111166,16.6261302 27.3061807,13 22.4986241,13 Z" id="Shape" fill="#350909"></path>
                            <path d="M22.4988048,23 C20.0175299,23 18,20.9818653 18,18.5 C18,16.0181347 20.0175299,14 22.4988048,14 C24.9800797,14 27,16.0181347 27,18.5 C27,20.9818653 24.9800797,23 22.4988048,23 Z" id="Shape" fill="#350909"></path>
                        </g>
                        <g id="Rectangle-10">
                            <use fill="#FFE45E" fill-rule="evenodd" xlink:href="#path-8"></use>
                            <path stroke="#350909" stroke-width="2" d="M55.2895424,9 C55.0026273,9 54.7295338,9.12323856 54.5397046,9.33837836 C54.174301,9.75250238 54.2137968,10.3844343 54.6279208,10.7498379 L64.3383784,19.3178887 C64.521078,19.4790942 64.7563478,19.5680508 65,19.5680508 C65.5522847,19.5680508 66,19.1203356 66,18.5680508 L66,10 C66,9.44771525 65.5522847,9 65,9 L55.2895424,9 Z"></path>
                        </g>
                        <g id="Rectangle-10" transform="translate(58.500000, 67.500000) scale(1, -1) translate(-58.500000, -67.500000) ">
                            <use fill="#FFE45E" fill-rule="evenodd" xlink:href="#path-9"></use>
                            <path stroke="#350909" stroke-width="2" d="M55.2895424,61 C55.0026273,61 54.7295338,61.1232386 54.5397046,61.3383784 C54.174301,61.7525024 54.2137968,62.3844343 54.6279208,62.7498379 L64.3383784,71.3178887 C64.521078,71.4790942 64.7563478,71.5680508 65,71.5680508 C65.5522847,71.5680508 66,71.1203356 66,70.5680508 L66,62 C66,61.4477153 65.5522847,61 65,61 L55.2895424,61 Z"></path>
                        </g>
                    </g>
                </g>
            </g>
        </g>
    </g>
</svg>